<?xml version="1.0" encoding="UTF-8" standalone="no"?>
<!-- Created with Inkscape (http://www.inkscape.org/) -->

<svg
   xmlns:osb="http://www.openswatchbook.org/uri/2009/osb"
   xmlns:dc="http://purl.org/dc/elements/1.1/"
   xmlns:cc="http://creativecommons.org/ns#"
   xmlns:rdf="http://www.w3.org/1999/02/22-rdf-syntax-ns#"
   xmlns:svg="http://www.w3.org/2000/svg"
   xmlns="http://www.w3.org/2000/svg"
   xmlns:sodipodi="http://sodipodi.sourceforge.net/DTD/sodipodi-0.dtd"
   xmlns:inkscape="http://www.inkscape.org/namespaces/inkscape"
   width="210mm"
   height="297mm"
   viewBox="0 0 744.09448819 1052.3622047"
   id="svg2"
   version="1.1"
   inkscape:version="0.91 r13725"
   sodipodi:docname="SmashTheTargetsVector.svg"
   inkscape:export-filename="C:\Users\Skyclimber\Documents\CarnivalTargetSmash\Assets\CarnivalGame\Models\Materials\SmashTheTargets.png"
   inkscape:export-xdpi="4709.9961"
   inkscape:export-ydpi="4709.9961">
  <defs
     id="defs4">
    <linearGradient
       id="linearGradient5673"
       osb:paint="solid">
      <stop
         style="stop-color:#ff030c;stop-opacity:1;"
         offset="0"
         id="stop5675" />
    </linearGradient>
    <linearGradient
       id="linearGradient5647"
       osb:paint="solid">
      <stop
         style="stop-color:#0f15f0;stop-opacity:1;"
         offset="0"
         id="stop5649" />
    </linearGradient>
  </defs>
  <sodipodi:namedview
     id="base"
     pagecolor="#ffffff"
     bordercolor="#666666"
     borderopacity="1.0"
     inkscape:pageopacity="0.0"
     inkscape:pageshadow="2"
     inkscape:zoom="45.254834"
     inkscape:cx="374.25798"
     inkscape:cy="806.98326"
     inkscape:document-units="px"
     inkscape:current-layer="layer2"
     showgrid="false"
     inkscape:window-width="1920"
     inkscape:window-height="1018"
     inkscape:window-x="-8"
     inkscape:window-y="-8"
     inkscape:window-maximized="1" />
  <metadata
     id="metadata7">
    <rdf:RDF>
      <cc:Work
         rdf:about="">
        <dc:format>image/svg+xml</dc:format>
        <dc:type
           rdf:resource="http://purl.org/dc/dcmitype/StillImage" />
      </cc:Work>
    </rdf:RDF>
  </metadata>
  <g
     inkscape:groupmode="layer"
     id="layer2"
     inkscape:label="Layer 2"
     style="display:inline">
    <path
       style="fill:#00ffff;fill-opacity:1;stroke:#00ffff;stroke-width:0.08351374;stroke-miterlimit:4;stroke-dasharray:none;stroke-opacity:1"
       d="m 364.70421,243.18074 5.05883,0.41987 4.99282,0.26519 4.81681,-0.26519 5.36685,-0.41987 0,2.35878 -20.23531,0 z"
       id="rect5682"
       inkscape:connector-curvature="0"
       sodipodi:nodetypes="cccccccc" />
  </g>
  <g
     inkscape:label="Layer 1"
     inkscape:groupmode="layer"
     id="layer1">
    <g
       style="font-style:normal;font-weight:normal;font-size:5px;line-height:125%;font-family:sans-serif;text-align:center;letter-spacing:0px;word-spacing:0px;text-anchor:middle;fill:#ff030c;fill-opacity:1;stroke:none;stroke-width:1px;stroke-linecap:butt;stroke-linejoin:miter;stroke-opacity:1"
       id="text4138"
       transform="matrix(0.97163356,0,0,1.0006868,9.9263663,0.73679256)">
      <path
         d="m 366.46765,243.10902 -0.47729,0 0,-0.14648 c 0,-0.0684 -0.006,-0.1119 -0.0183,-0.13062 -0.0122,-0.0187 -0.0325,-0.0281 -0.061,-0.0281 -0.0309,0 -0.0545,0.0126 -0.0708,0.0378 -0.0155,0.0252 -0.0232,0.0634 -0.0232,0.11475 0,0.0659 0.009,0.11557 0.0268,0.14892 0.0171,0.0333 0.0655,0.0736 0.14527,0.12085 0.22867,0.13591 0.37271,0.2474 0.43212,0.33447 0.0594,0.0871 0.0891,0.22746 0.0891,0.42115 0,0.14079 -0.0167,0.24455 -0.05,0.31128 -0.0325,0.0667 -0.096,0.12288 -0.19043,0.16845 -0.0944,0.0447 -0.20426,0.0671 -0.32959,0.0671 -0.13753,0 -0.25513,-0.026 -0.35279,-0.0781 -0.0968,-0.0521 -0.16032,-0.11839 -0.19043,-0.19898 -0.0301,-0.0806 -0.0452,-0.19491 -0.0452,-0.34302 l 0,-0.12939 0.47729,0 0,0.24048 c 0,0.074 0.006,0.12166 0.0195,0.14282 0.0139,0.0211 0.0379,0.0317 0.072,0.0317 0.0342,0 0.0594,-0.0134 0.0757,-0.0403 0.0171,-0.0269 0.0256,-0.0667 0.0256,-0.11963 0,-0.11637 -0.0159,-0.19246 -0.0476,-0.22827 -0.0325,-0.0358 -0.11269,-0.0956 -0.24048,-0.17945 -0.12777,-0.0846 -0.2124,-0.14607 -0.25391,-0.18432 -0.0415,-0.0383 -0.0761,-0.0912 -0.10376,-0.1587 -0.0269,-0.0675 -0.0403,-0.1538 -0.0403,-0.25878 0,-0.15137 0.0191,-0.26205 0.0574,-0.33204 0.0391,-0.07 0.10173,-0.12451 0.18799,-0.16357 0.0863,-0.0399 0.19043,-0.0598 0.3125,-0.0598 0.13347,0 0.24699,0.0216 0.34058,0.0647 0.0944,0.0431 0.15665,0.0977 0.18676,0.16358 0.0309,0.0651 0.0464,0.17615 0.0464,0.33325 l 0,0.0117 z"
         style="font-style:normal;font-variant:normal;font-weight:normal;font-stretch:condensed;font-size:2.5px;font-family:Impact;-inkscape-font-specification:'Impact Condensed';text-align:center;text-anchor:middle;fill:#ff030c;fill-opacity:1;stroke:#0f15f0;stroke-width:0.1;stroke-miterlimit:4;stroke-dasharray:none;stroke-opacity:1"
         id="path4143"
         inkscape:connector-curvature="0"
         sodipodi:nodetypes="ccscscscccsccsccsccscscsccccsccsccscc" />
      <path
         d="m 368.25842,242.66713 0,1.82007 -0.44922,0 0,-1.22875 -0.17944,1.22875 -0.3186,0 -0.18921,-1.20064 0,1.20064 -0.44922,0 0,-1.82007 0.66528,0 c 0.0195,0.10941 0.0403,0.23832 0.0623,0.38672 l 0.0708,0.46318 0.11719,-0.8499 0.60766,0 z"
         style="font-style:normal;font-variant:normal;font-weight:normal;font-stretch:condensed;font-size:2.5px;font-family:Impact;-inkscape-font-specification:'Impact Condensed';text-align:center;text-anchor:middle;fill:#ff030c;fill-opacity:1;stroke:#0f15f0;stroke-width:0.1;stroke-miterlimit:4;stroke-dasharray:none;stroke-opacity:1"
         id="path4145"
         inkscape:connector-curvature="0"
         sodipodi:nodetypes="cccccccccccccccc" />
      <path
         d="m 369.35217,242.7765 0.29419,1.7107 -0.52612,0 -0.0256,-0.30748 -0.18432,0 -0.0305,0.30748 -0.53223,0 0.26123,-1.7107 0.64575,0 z m -0.27221,1.09996 c -0.0261,-0.19371 -0.0521,-0.43287 -0.0781,-0.71746 -0.0521,0.32686 -0.0846,0.56601 -0.0977,0.71746 z"
         style="font-style:normal;font-variant:normal;font-weight:normal;font-stretch:condensed;font-size:2.5px;font-family:Impact;-inkscape-font-specification:'Impact Condensed';text-align:center;text-anchor:middle;fill:#ff030c;fill-opacity:1;stroke:#0f15f0;stroke-width:0.1;stroke-miterlimit:4;stroke-dasharray:none;stroke-opacity:1"
         id="path4147"
         inkscape:connector-curvature="0"
         sodipodi:nodetypes="cccccccccccccc" />
      <path
         d="m 370.82312,243.38906 -0.47729,0 0,-0.11758 c 0,-0.0549 -0.006,-0.0898 -0.0183,-0.10486 -0.0122,-0.015 -0.0325,-0.0225 -0.061,-0.0225 -0.0309,0 -0.0545,0.0101 -0.0708,0.0303 -0.0155,0.0202 -0.0232,0.0509 -0.0232,0.0921 0,0.0529 0.009,0.0928 0.0269,0.11955 0.0171,0.0267 0.0655,0.0591 0.14526,0.097 0.22868,0.10909 0.37272,0.19859 0.43213,0.26848 0.0594,0.0699 0.0891,0.1826 0.0891,0.33807 0,0.11301 -0.0167,0.19631 -0.05,0.24988 -0.0325,0.0535 -0.096,0.0986 -0.19043,0.13522 -0.0944,0.0359 -0.20427,0.0539 -0.32959,0.0539 -0.13753,0 -0.25513,-0.0209 -0.35279,-0.0627 -0.0968,-0.0418 -0.16032,-0.095 -0.19043,-0.15973 -0.0301,-0.0647 -0.0452,-0.15645 -0.0452,-0.27535 l 0,-0.10387 0.47729,0 0,0.19304 c 0,0.0595 0.006,0.0977 0.0195,0.11465 0.0139,0.0169 0.0379,0.0254 0.072,0.0254 0.0342,0 0.0594,-0.0108 0.0757,-0.0323 0.0171,-0.0216 0.0256,-0.0536 0.0256,-0.096 0,-0.0934 -0.0159,-0.15449 -0.0476,-0.18323 -0.0325,-0.0287 -0.11269,-0.0768 -0.24048,-0.14405 -0.12777,-0.0679 -0.2124,-0.11726 -0.25391,-0.14796 -0.0415,-0.0307 -0.0761,-0.0732 -0.10376,-0.1274 -0.0269,-0.0542 -0.0403,-0.12344 -0.0403,-0.20773 0,-0.12151 0.0191,-0.21035 0.0574,-0.26653 0.0391,-0.0562 0.10173,-0.1 0.18799,-0.13131 0.0863,-0.032 0.19043,-0.048 0.3125,-0.048 0.13346,0 0.24699,0.0173 0.34058,0.0519 0.0944,0.0346 0.15665,0.0784 0.18676,0.13131 0.0309,0.0522 0.0464,0.14137 0.0464,0.26751 l 0,-0.0271 z"
         style="font-style:normal;font-variant:normal;font-weight:normal;font-stretch:condensed;font-size:2.5px;font-family:Impact;-inkscape-font-specification:'Impact Condensed';text-align:center;text-anchor:middle;fill:#ff030c;fill-opacity:1;stroke:#0f15f0;stroke-width:0.1;stroke-miterlimit:4;stroke-dasharray:none;stroke-opacity:1"
         id="path4149"
         inkscape:connector-curvature="0"
         sodipodi:nodetypes="ccscscscccsccsccsccscscsccccsccsccscc" />
      <path
         d="m 372.20984,243.089 0,1.3982 -0.51392,0 0,-0.58726 -0.15381,0 0,0.58726 -0.51391,0 0,-1.3982 0.51391,0 0,0.50004 0.15381,0 0,-0.50004 0.51392,0 z"
         style="font-style:normal;font-variant:normal;font-weight:normal;font-stretch:condensed;font-size:2.5px;font-family:Impact;-inkscape-font-specification:'Impact Condensed';text-align:center;text-anchor:middle;fill:#ff030c;fill-opacity:1;stroke:#0f15f0;stroke-width:0.1;stroke-miterlimit:4;stroke-dasharray:none;stroke-opacity:1"
         id="path4151"
         inkscape:connector-curvature="0" />
      <path
         d="m 373.35974,243.30751 0,0.16393 0.13306,0 0,0.16472 -0.13306,0 0,0.5569 q 0,0.10275 0.0159,0.11452 0.0171,0.0118 0.13794,0.0118 l 0,0.16785 -0.19897,0 q -0.16846,0 -0.24048,-0.009 -0.072,-0.009 -0.12696,-0.0416 -0.0549,-0.033 -0.0684,-0.0745 -0.0134,-0.0423 -0.0134,-0.19767 l 0,-0.52866 -0.1062,0 0,-0.16471 0.1062,0 0,-0.16394 0.49438,0 z"
         style="font-style:normal;font-variant:normal;font-weight:normal;font-stretch:condensed;font-size:2.5px;font-family:Impact;-inkscape-font-specification:'Impact Condensed';text-align:center;text-anchor:middle;fill:#ff030c;fill-opacity:1;stroke:#0f15f0;stroke-width:0.1;stroke-miterlimit:4;stroke-dasharray:none;stroke-opacity:1"
         id="path4153"
         inkscape:connector-curvature="0" />
      <path
         d="m 374.0946,243.27649 0,0.2722 c 0.0423,-0.0239 0.0879,-0.0419 0.13672,-0.0538 0.0497,-0.012 0.10256,-0.018 0.15869,-0.018 0.0863,0 0.15951,0.0135 0.21973,0.0404 0.061,0.0269 0.098,0.0581 0.11109,0.0935 0.0139,0.0349 0.0208,0.0989 0.0208,0.19219 l 0,0.68425 -0.49317,0 0,-0.69846 c 0,-0.0578 -0.005,-0.0949 -0.0146,-0.11142 -0.009,-0.0165 -0.0297,-0.0247 -0.0623,-0.0247 -0.0301,0 -0.0505,0.008 -0.061,0.0254 -0.0106,0.0169 -0.0159,0.0506 -0.0159,0.10095 l 0,0.70818 -0.49316,0 0,-1.21071 0.33848,0 z"
         style="font-style:normal;font-variant:normal;font-weight:normal;font-stretch:condensed;font-size:2.5px;font-family:Impact;-inkscape-font-specification:'Impact Condensed';text-align:center;text-anchor:middle;fill:#ff030c;fill-opacity:1;stroke:#0f15f0;stroke-width:0.1;stroke-miterlimit:4;stroke-dasharray:none;stroke-opacity:1"
         id="path4155"
         inkscape:connector-curvature="0"
         sodipodi:nodetypes="cccsccsccscscsccccc" />
      <path
         d="m 376.0264,243.90211 -0.63778,0 0,0.2653 c 0,0.0555 0.005,0.0912 0.0159,0.10723 0.0106,0.016 0.0309,0.024 0.0609,0.024 0.0374,0 0.0622,-0.0105 0.0744,-0.0314 0.013,-0.0216 0.0195,-0.0629 0.0195,-0.12388 l 0,-0.16177 0.46705,0 0,0.0906 c 0,0.0758 -0.006,0.13404 -0.0195,0.17471 -0.0122,0.0407 -0.0415,0.0841 -0.0878,0.13035 -0.0463,0.0461 -0.10528,0.081 -0.17683,0.10445 -0.0707,0.0228 -0.15974,0.0342 -0.26705,0.0342 -0.10406,0 -0.19593,-0.0114 -0.2756,-0.0342 -0.0797,-0.0228 -0.14187,-0.0539 -0.18658,-0.0933 -0.0439,-0.0401 -0.0743,-0.0838 -0.0914,-0.13126 -0.0171,-0.0481 -0.0256,-0.11771 -0.0256,-0.20892 l 0,-0.35775 c 0,-0.10723 0.0191,-0.19166 0.0573,-0.25329 0.0382,-0.0623 0.1008,-0.10972 0.1878,-0.14236 0.087,-0.0333 0.18697,-0.0499 0.29998,-0.0499 0.13821,0 0.25202,0.02 0.34145,0.06 0.0902,0.0394 0.15324,0.0921 0.18902,0.15807 0.0365,0.0653 0.0548,0.15747 0.0548,0.27641 l 0,0.12363 z m -0.49388,-0.19967 0,-0.0897 c 0,-0.0635 -0.004,-0.10452 -0.0134,-0.12295 -0.009,-0.0185 -0.0272,-0.0278 -0.0548,-0.0278 -0.0341,0 -0.0553,0.008 -0.0634,0.024 -0.008,0.0154 -0.0122,0.0576 -0.0122,0.12664 l 0,0.0896 0.0775,0 z"
         style="font-style:normal;font-variant:normal;font-weight:normal;font-stretch:condensed;font-size:2.5px;font-family:Impact;-inkscape-font-specification:'Impact Condensed';text-align:center;text-anchor:middle;fill:#ff030c;fill-opacity:1;stroke:#0f15f0;stroke-width:0.10115381;stroke-miterlimit:4;stroke-dasharray:none;stroke-opacity:1"
         id="path4157"
         inkscape:connector-curvature="0"
         sodipodi:nodetypes="ccscscsccscccssccssccsccscccscscsccc" />
      <path
         d="m 377.67859,243.12025 0,0.27356 -0.30518,0 0,1.09339 -0.51391,0 0,-1.09339 -0.30396,0 0,-0.27356 1.12305,0 z"
         style="font-style:normal;font-variant:normal;font-weight:normal;font-stretch:condensed;font-size:2.5px;font-family:Impact;-inkscape-font-specification:'Impact Condensed';text-align:center;text-anchor:middle;fill:#ff030c;fill-opacity:1;stroke:#0f15f0;stroke-width:0.1;stroke-miterlimit:4;stroke-dasharray:none;stroke-opacity:1"
         id="path4159"
         inkscape:connector-curvature="0" />
      <path
         d="m 378.68323,243.05775 0.29419,1.42945 -0.52613,0 -0.0256,-0.25693 -0.18433,0 -0.0305,0.25693 -0.53223,0 0.26123,-1.42945 0.68091,0 z m -0.27222,0.91912 c -0.0261,-0.16187 -0.0521,-0.3617 -0.0781,-0.5995 -0.0521,0.27311 -0.0846,0.47295 -0.0977,0.5995 l 0.17578,0 z"
         style="font-style:normal;font-variant:normal;font-weight:normal;font-stretch:condensed;font-size:2.5px;font-family:Impact;-inkscape-font-specification:'Impact Condensed';text-align:center;text-anchor:middle;fill:#ff030c;fill-opacity:1;stroke:#0f15f0;stroke-width:0.1;stroke-miterlimit:4;stroke-dasharray:none;stroke-opacity:1"
         id="path4161"
         inkscape:connector-curvature="0"
         sodipodi:nodetypes="ccccccccccccccc" />
      <path
         d="m 379.06531,242.964 0.36377,0 c 0.24251,0 0.40649,0.007 0.49194,0.0217 0.0863,0.0145 0.15625,0.0515 0.20996,0.11102 0.0545,0.0589 0.0818,0.15333 0.0818,0.28319 0,0.11854 -0.0191,0.1982 -0.0574,0.23897 -0.0383,0.0407 -0.11354,0.0652 -0.22583,0.0734 0.10172,0.0194 0.17008,0.0454 0.20507,0.0781 0.035,0.0327 0.0566,0.0628 0.0647,0.0903 0.009,0.027 0.0134,0.10195 0.0134,0.22486 l 0,0.40173 -0.4773,0 0,-0.50617 c 0,-0.0815 -0.009,-0.13202 -0.0256,-0.15147 -0.0163,-0.0194 -0.0598,-0.0291 -0.13062,-0.0291 l 0,0.68681 -0.51391,0 0,-1.52321 z m 0.51391,0.26061 0,0.33871 c 0.0578,0 0.0981,-0.006 0.12085,-0.0179 0.0236,-0.0125 0.0354,-0.0524 0.0354,-0.11949 l 0,-0.0837 c 0,-0.0483 -0.0114,-0.08 -0.0342,-0.095 -0.022,-0.0151 -0.0314,-0.0226 -0.0908,-0.0226 z"
         style="font-style:normal;font-variant:normal;font-weight:normal;font-stretch:condensed;font-size:2.5px;font-family:Impact;-inkscape-font-specification:'Impact Condensed';text-align:center;text-anchor:middle;fill:#ff030c;fill-opacity:1;stroke:#0f15f0;stroke-width:0.1;stroke-miterlimit:4;stroke-dasharray:none;stroke-opacity:1"
         id="path4163"
         inkscape:connector-curvature="0"
         sodipodi:nodetypes="csccsccccsccscccccccccssccc" />
      <path
         d="m 381.59216,243.49297 -0.51391,0 0,-0.14404 c 0,-0.0908 -0.005,-0.14763 -0.0147,-0.1705 -0.01,-0.0229 -0.033,-0.0343 -0.0696,-0.0343 -0.0317,0 -0.0533,0.01 -0.0647,0.0294 -0.0114,0.0196 -0.0171,0.0699 -0.0171,0.15091 l 0,0.76136 c 0,0.0712 0.006,0.11824 0.0171,0.14111 0.0114,0.0222 0.0342,0.0333 0.0684,0.0333 0.0375,0 0.0627,-0.0127 0.0757,-0.0382 0.0139,-0.0255 0.0208,-0.0751 0.0208,-0.14894 l 0,-0.18813 -0.10376,0 0,-0.24105 0.6018,0 0,0.85151 -0.32348,0 -0.0476,-0.11366 c -0.035,0.049 -0.0794,0.0859 -0.13306,0.11073 -0.0529,0.0242 -0.11553,0.0363 -0.18799,0.0363 -0.0863,0 -0.16723,-0.0166 -0.24292,-0.0499 -0.0749,-0.034 -0.13183,-0.0758 -0.17089,-0.12542 -0.0391,-0.0497 -0.0635,-0.1016 -0.0733,-0.15581 -0.01,-0.0549 -0.0146,-0.13685 -0.0146,-0.24595 l 0,-0.47132 c 0,-0.15156 0.0102,-0.26164 0.0305,-0.33023 0.0203,-0.0686 0.0785,-0.1313 0.17456,-0.18813 0.0969,-0.0575 0.22177,-0.0862 0.37476,-0.0862 0.15055,0 0.27547,0.0248 0.37476,0.0745 0.0993,0.0497 0.16398,0.10879 0.19409,0.17736 0.0301,0.0679 0.0452,0.16691 0.0452,0.29691 l 0,-0.0291 z"
         style="font-style:normal;font-variant:normal;font-weight:normal;font-stretch:condensed;font-size:2.5px;font-family:Impact;-inkscape-font-specification:'Impact Condensed';text-align:center;text-anchor:middle;fill:#ff030c;fill-opacity:1;stroke:#0f15f0;stroke-width:0.1;stroke-miterlimit:4;stroke-dasharray:none;stroke-opacity:1"
         id="path4165"
         inkscape:connector-curvature="0"
         sodipodi:nodetypes="ccsssssscscsccccccccscccssccsccscc" />
      <path
         d="m 381.78992,242.82338 0.85693,0 0,0.33297 -0.34302,0 0,0.31549 0.32105,0 0,0.31654 -0.32105,0 0,0.36585 0.3772,0 0,0.33297 -0.89111,0 0,-1.66382 z"
         style="font-style:normal;font-variant:normal;font-weight:normal;font-stretch:condensed;font-size:2.5px;font-family:Impact;-inkscape-font-specification:'Impact Condensed';text-align:center;text-anchor:middle;fill:#ff030c;fill-opacity:1;stroke:#0f15f0;stroke-width:0.1;stroke-miterlimit:4;stroke-dasharray:none;stroke-opacity:1"
         id="path4167"
         inkscape:connector-curvature="0" />
      <path
         d="m 383.86511,242.69837 0,0.35799 -0.30517,0 0,1.43084 -0.51392,0 0,-1.43084 -0.30395,0 0,-0.35799 1.12304,0 z"
         style="font-style:normal;font-variant:normal;font-weight:normal;font-stretch:condensed;font-size:2.5px;font-family:Impact;-inkscape-font-specification:'Impact Condensed';text-align:center;text-anchor:middle;fill:#ff030c;fill-opacity:1;stroke:#0f15f0;stroke-width:0.1;stroke-miterlimit:4;stroke-dasharray:none;stroke-opacity:1"
         id="path4169"
         inkscape:connector-curvature="0" />
      <path
         d="m 385.07117,243.19519 -0.4773,0 0,-0.13759 q 0,-0.0963 -0.0183,-0.12269 -0.0183,-0.0264 -0.061,-0.0264 -0.0464,0 -0.0708,0.0355 -0.0232,0.0355 -0.0232,0.10778 0,0.0929 0.0269,0.13988 0.0256,0.047 0.14526,0.11352 0.34302,0.19148 0.43213,0.31417 0.0891,0.12269 0.0891,0.39558 0,0.19836 -0.05,0.29239 -0.0488,0.094 -0.19043,0.15822 -0.1416,0.063 -0.32959,0.063 -0.2063,0 -0.35278,-0.0734 -0.14526,-0.0734 -0.19043,-0.1869 -0.0452,-0.11352 -0.0452,-0.3222 l 0,-0.12154 0.4773,0 0,0.22589 q 0,0.10433 0.0195,0.13415 0.0208,0.0298 0.072,0.0298 0.0513,0 0.0757,-0.0379 0.0256,-0.0378 0.0256,-0.11237 0,-0.16396 -0.0476,-0.21441 -0.0488,-0.0504 -0.24048,-0.16856 -0.19165,-0.11925 -0.2539,-0.17313 -0.0623,-0.0539 -0.10376,-0.14907 -0.0403,-0.0952 -0.0403,-0.24307 0,-0.21328 0.0574,-0.31189 0.0586,-0.0986 0.18799,-0.15364 0.12939,-0.0562 0.3125,-0.0562 0.20019,0 0.34057,0.0608 0.1416,0.0608 0.18677,0.15365 0.0464,0.0917 0.0464,0.31303 l 0,0.0734 z"
         style="font-style:normal;font-variant:normal;font-weight:normal;font-stretch:condensed;font-size:2.5px;font-family:Impact;-inkscape-font-specification:'Impact Condensed';text-align:center;text-anchor:middle;fill:#ff030c;fill-opacity:1;stroke:#0f15f0;stroke-width:0.1;stroke-miterlimit:4;stroke-dasharray:none;stroke-opacity:1"
         id="path4171"
         inkscape:connector-curvature="0" />
      <path
         d="m 385.80359,242.51088 -0.0806,1.48804 -0.38086,0 -0.0806,-1.48804 0.54199,0 z m -0.0403,1.58081 0,0.39551 -0.46143,0 0,-0.39551 0.46143,0 z"
         style="font-style:normal;font-variant:normal;font-weight:normal;font-stretch:condensed;font-size:2.5px;font-family:Impact;-inkscape-font-specification:'Impact Condensed';text-align:center;text-anchor:middle;fill:#ff030c;fill-opacity:1;stroke:#0f15f0;stroke-width:0.1;stroke-miterlimit:4;stroke-dasharray:none;stroke-opacity:1"
         id="path4173"
         inkscape:connector-curvature="0" />
    </g>
  </g>
</svg>
